# xmcd
#
# Track frame offsets:
#	150
#	13487
#	27525
#	39921
#	53906
#	66892
#	83489
#	96150
#	107359
#	120725
#	140325
#	156855
#	172578
#	188332
#	202354
#	214413
#	227779
#	249360
#	265246
#	278542
#	291166
#
# Disc length: 4088 seconds
#
# Revision: 1
# Processed by: cddbd v1.4PL0 Copyright (c) Steve Scherf et al.
# Submitted via: audiograbber 1.81.02
#
DISCID=250ff615
DTITLE=Claude Francois - 10 ans de chansons cd 8
DYEAR=1900
DGENRE=chansons
TTITLE0=Un peu d'amour, beaucoup de  haine
TTITLE1=Plus rien qu'une adresse en commun
TTITLE2=Comme un jour nouveau
TTITLE3=En souvenir
TTITLE4=Aime moi ou quitte moi
TTITLE5=Combien de rivières
TTITLE6=Donne un peu de rêve
TTITLE7=Et je cours, je cours
TTITLE8=Et je ne pense plus à toi
TTITLE9=Un jardin dans mon coeur
TTITLE10=Y'a le printemps qui chante
TTITLE11=Feu de paille
TTITLE12=Pourvu que je me souvienne du soleil
TTITLE13=Voleurs bohémiens
TTITLE14=Merci, merci beaucoup
TTITLE15=Mais c'est différent déjà
TTITLE16=En attendant
TTITLE17=Quand l'épicier ouvre sa boutique
TTITLE18=Je chante pour les gens qui s'aiment
TTITLE19=Elle est au bout de la nuit
TTITLE20=Jésus christ superstar
EXTD=
EXTT0=
EXTT1=
EXTT2=
EXTT3=
EXTT4=
EXTT5=
EXTT6=
EXTT7=
EXTT8=
EXTT9=
EXTT10=
EXTT11=
EXTT12=
EXTT13=
EXTT14=
EXTT15=
EXTT16=
EXTT17=
EXTT18=
EXTT19=
EXTT20=
PLAYORDER=
